<svg width="800" height="600" xmlns="http://www.w3.org/2000/svg">

 <g>
  <title>Layer 1</title>
  <rect id="svg_3" height="0" width="1" y="453.99998" x="-19.00002" stroke="#000" fill="#2fcece"/>
  <rect id="svg_7" height="57" width="314.99999" y="542.99997" x="-1.00002" stroke="#000" fill="#4f2c0b"/>
  <rect id="svg_8" height="57" width="314.99999" y="544.99997" x="314.99998" stroke="#000" fill="#4f2c0b"/>
  <rect id="svg_9" height="57" width="314.99999" y="544.99997" x="626.99998" stroke="#000" fill="#4f2c0b"/>
  <rect id="svg_10" height="57" width="314.99999" y="486.99997" x="-149.00002" stroke="#000" fill="#4f2c0b"/>
  <rect id="svg_11" height="57" width="314.99999" y="486.99997" x="162.99998" stroke="#000" fill="#4f2c0b"/>
  <rect id="svg_12" height="57" width="314.99999" y="486.99997" x="478.99998" stroke="#000" fill="#4f2c0b"/>
  <rect id="svg_13" height="57" width="314.99999" y="486.99997" x="794.99998" stroke="#000" fill="#4f2c0b"/>
  <rect id="svg_14" height="57" width="314.99999" y="428.99997" x="-14.00002" stroke="#000" fill="#4f2c0b"/>
  <rect id="svg_15" height="57" width="314.99999" y="428.99997" x="298.99998" stroke="#000" fill="#4f2c0b"/>
  <rect id="svg_16" height="57" width="314.99999" y="429.99997" x="614.99998" stroke="#000" fill="#4f2c0b"/>
  <rect id="svg_17" height="57" width="314.99999" y="370.99997" x="-216.00002" stroke="#000" fill="#4f2c0b"/>
  <rect id="svg_18" height="57" width="314.99999" y="370.99997" x="97.99998" stroke="#000" fill="#4f2c0b"/>
  <rect id="svg_19" height="57" width="314.99999" y="371.99997" x="413.99998" stroke="#000" fill="#4f2c0b"/>
  <rect id="svg_20" height="57" width="314.99999" y="371.99997" x="725.99998" stroke="#000" fill="#4f2c0b"/>
  <rect id="svg_21" height="57" width="314.99999" y="312.99997" x="-65.00002" stroke="#000" fill="#4f2c0b"/>
  <rect id="svg_22" height="57" width="314.99999" y="313.99997" x="248.99998" stroke="#000" fill="#4f2c0b"/>
  <rect id="svg_23" height="57" width="314.99999" y="313.99997" x="562.99998" stroke="#000" fill="#4f2c0b"/>
  <rect id="svg_24" height="57" width="314.99999" y="256.99997" x="-30.00002" stroke="#000" fill="#4f2c0b"/>
  <rect id="svg_25" height="57" width="314.99999" y="256.99997" x="283.99998" stroke="#000" fill="#4f2c0b"/>
  <rect id="svg_26" height="57" width="314.99999" y="256.99997" x="599.99998" stroke="#000" fill="#4f2c0b"/>
  <rect id="svg_27" height="57" width="314.99999" y="200.99997" x="-176.00002" stroke="#000" fill="#4f2c0b"/>
  <rect id="svg_28" height="57" width="314.99999" y="201.99997" x="139.99998" stroke="#000" fill="#4f2c0b"/>
  <rect id="svg_29" height="57" width="314.99999" y="201.99997" x="455.99998" stroke="#000" fill="#4f2c0b"/>
  <rect id="svg_30" height="57" width="314.99999" y="201.99997" x="770.99998" stroke="#000" fill="#4f2c0b"/>
  <rect id="svg_31" height="57" width="314.99999" y="144.99997" x="-27.00002" stroke="#000" fill="#4f2c0b"/>
  <rect id="svg_32" height="57" width="314.99999" y="144.99997" x="285.99998" stroke="#000" fill="#4f2c0b"/>
  <rect id="svg_33" height="57" width="314.99999" y="144.99997" x="600.99998" stroke="#000" fill="#4f2c0b"/>
  <rect id="svg_34" height="57" width="314.99999" y="88.99997" x="-57.00002" stroke="#000" fill="#4f2c0b"/>
  <rect id="svg_35" height="57" width="314.99999" y="88.99997" x="257.99998" stroke="#000" fill="#4f2c0b"/>
  <rect id="svg_36" height="57" width="314.99999" y="88.99997" x="572.99998" stroke="#000" fill="#4f2c0b"/>
  <rect id="svg_37" height="57" width="314.99999" y="30.99997" x="-97.00002" stroke="#000" fill="#4f2c0b"/>
  <rect id="svg_38" height="57" width="314.99999" y="30.99997" x="218.99998" stroke="#000" fill="#4f2c0b"/>
  <rect id="svg_39" height="57" width="314.99999" y="30.99997" x="534.99998" stroke="#000" fill="#4f2c0b"/>
  <rect id="svg_40" height="57" width="314.99999" y="-26.00003" x="-19.00002" stroke="#000" fill="#4f2c0b"/>
  <rect id="svg_41" height="57" width="314.99999" y="-25.00003" x="295.99998" stroke="#000" fill="#4f2c0b"/>
  <rect id="svg_42" height="57" width="314.99999" y="-26.00003" x="611.99998" stroke="#000" fill="#4f2c0b"/>
  <rect id="svg_43" height="207.99999" width="55" y="389.99998" x="-0.00002" stroke="#000" fill="#2d1905"/>
  <rect id="svg_44" height="207.99999" width="55" y="106.99998" x="-0.00002" stroke="#000" fill="#2d1905"/>
  <rect transform="rotate(90.1201 205.5 29)" id="svg_45" height="207.99999" width="55" y="-75.00002" x="177.99998" stroke="#000" fill="#2d1905"/>
  <rect transform="rotate(90.1201 575.5 30)" id="svg_46" height="207.99999" width="55" y="-74.00002" x="547.99998" stroke="#000" fill="#2d1905"/>
  <rect id="svg_47" height="207.99999" width="55" y="390.99998" x="745.99998" stroke="#000" fill="#2d1905"/>
  <rect id="svg_48" height="207.99999" width="55" y="102.99998" x="744.99998" stroke="#000" fill="#2d1905"/>
  <ellipse stroke="#000" ry="148.5" rx="239" id="svg_49" cy="347.49998" cx="401.99997" fill="#4f0303"/>
  <ellipse stroke="#000" ry="129.5" rx="208" id="svg_50" cy="348.49998" cx="402.99997" fill="#bc7d00"/>
  <ellipse stroke="#000" ry="118" rx="196" id="svg_51" cy="347.99998" cx="402.99997" fill="#4f0303"/>
  <ellipse stroke="#000" ry="24" rx="23" id="svg_52" cy="47.99999" cx="42.99997" fill="#704218"/>
  <ellipse stroke="#000" ry="24" rx="23" id="svg_53" cy="46.99999" cx="751.99997" fill="#704218"/>
  <path opacity="0.29" stroke="#000" id="svg_54" d="m-3.12002,33.92673l35.90506,0l11.09494,-29.0295l11.09495,29.0295l35.90505,0l-29.04775,17.94101l11.09551,29.0295l-29.04776,-17.9415l-29.04776,17.9415l11.09552,-29.0295l-29.04776,-17.94101z" fill="#ffff56"/>
  <path opacity="0.29" stroke="#000" id="svg_55" d="m705.87998,32.92673l35.90506,0l11.09494,-29.02949l11.09494,29.02949l35.90506,0l-29.04775,17.94101l11.09551,29.0295l-29.04776,-17.9415l-29.04776,17.9415l11.09552,-29.0295l-29.04776,-17.94101z" fill="#ffff56"/>
 </g>
</svg>